<svg xmlns="http://www.w3.org/2000/svg" preserveAspectRatio="xMidYMid" width="192" height="192" viewBox="0 0 192 192"><path d="M196.817 2.534c-1.102 3.427-6.915 4.366-9.724 2.607-3.474-2.174-2.193-7.494.48-9.777 2.805-2.396 7.786-1.657 8.719 2.259a2.413 2.413 0 0 1-.089 1.48c.739.937.998 2.237.614 3.431zm-30.524 26.913c-3.132-1.307-5.775-5.249-3.326-8.44.913-1.19 2.306-1.881 3.732-1.368 2.74-.949 5.723-1.179 8.091.893 2.343 2.05 3.13 5.928.833 8.322-2.485 2.59-6.362 1.832-9.33.593zm.139 38.523c3.241.677 6.622 2.321 6.857 6.05.232 3.693-3.235 5.601-6.534 4.857-3.083-.695-6.797-2.807-6.332-6.46.23-1.814 1.682-3.035 3.271-3.348.552-.813 1.514-1.354 2.738-1.099zm3.437 93.179c.995.519 1.468 1.306 1.574 2.136 1.907 1.314 3.091 3.738 2.473 6.124-.955 3.688-5.191 5.496-8.685 4.395-3.928-1.238-6.323-5.935-4.484-9.725 1.642-3.386 5.836-4.645 9.122-2.93zm-21.68-12.681c-.002.026-.01.05-.011.076-.103 1.981-1.882 3.49-3.89 2.954-2.685-.716-4.252-2.688-4.662-4.889-1.617-1.592-2.344-3.881-1.047-6.552 1.636-3.366 6.143-4.66 8.901-1.776.744.778 1.21 1.76 1.478 2.797 1.306.212 2.404 1.175 2.262 2.894-.196 2.365-1.411 3.802-3.031 4.496zm-4.948-55.653c1.117-.41 2.438-.363 3.654.374 2.702 1.638 3.13 5.619 1.06 7.919-2.01 2.233-5.739 2.271-7.787.077-1.916-2.054-1.907-5.164-1.143-7.701.632-2.102 3.213-2.001 4.216-.669zm-3.581-38.984c-2.695-1.959-3.743-6.098-1.702-8.902.778-1.069 2.042-1.662 3.292-1.239a4.562 4.562 0 0 1 3.103-.976c4.343.259 6.356 5.376 4.311 8.872-1.801 3.079-5.994 4.434-9.004 2.245zm-18.006-23.178c-4.099.87-7.722-1.818-8.813-5.528a5.94 5.94 0 0 1-.817-2.078c-.383-2.136.704-4.28 2.632-5.284 3.497-1.82 8.744-.123 10.977 2.962 2.674 3.697.453 8.987-3.979 9.928zm-4.618 80.829c3.98-.126 6.378 4.171 5.859 7.656.534 1.574.269 3.398-.728 4.81-1.667 2.361-4.927 2.7-7.349 1.313-2.734-1.567-3.79-4.731-3.262-7.727.49-2.778 2.32-5.951 5.48-6.052zm-20.212-6.645c-2.973.969-6.169-.385-7.75-3.045-1.62-2.725-1.24-5.785-.435-8.709.566-2.055 2.791-3.309 4.851-2.745.288.079.556.197.81.337a4.094 4.094 0 0 1 2.679.426c2.48 1.362 4.352 3.843 4.524 6.712.182 3.03-1.746 6.069-4.679 7.024zm1.87-51.642c-.471.092-.942.12-1.409.125a4.607 4.607 0 0 1-.801.255c-1.944.428-4.052-.576-5.138-2.196-.542-.808-.804-1.685-.873-2.584-.253-.713-.43-1.469-.42-2.305.024-2.049.945-4.233 2.683-5.41 2.047-1.387 4.354-.632 5.723 1.279 1.214 1.694 1.948 4.636 1.542 7.102.891 1.316.675 3.349-1.307 3.734zM70.326 126.81c-3.66-.82-6.56-4.566-5.539-8.354.451-1.672 1.688-3.209 3.222-4.016 1.175-.616 2.335-.756 3.502-.61.973-.805 2.289-1.208 3.489-.76 3.707 1.381 5.917 5.344 4.364 9.173-1.426 3.519-5.362 5.39-9.038 4.567zm.057-95.968c-2.505-1.053-3.319-3.72-3.146-6.229.099-1.442.943-2.565 2.229-2.982 1.345-1.396 3.595-1.796 5.397-.71 2.348 1.415 2.636 4.242 1.919 6.659-.85 2.867-3.528 4.47-6.399 3.262zm2.404 34.494c3.146 1.406 4.921 5.289 4.047 8.59-.848 3.199-3.884 5.652-7.233 5.676-4.526.031-6.056-4.359-5.665-8.188.31-3.037 2.485-5.752 5.373-6.24 1.026-.425 2.248-.387 3.478.162zm-25.955 38.425a6.14 6.14 0 0 1-2.902-1.947c-.143-.047-.286-.089-.426-.148-2.246-.954-4.3-2.767-4.901-5.208-.665-2.701.652-5.472 2.968-6.931 4.623-2.914 10.686.261 13.04 4.679 2.643 4.96-2.209 11.31-7.779 9.555zM51.048 53.1c-1.603 1.142-3.842 1.434-5.695.781-2.348-.828-3.833-2.963-4.041-5.402-.409-4.791 4.979-8 9.048-5.434a5.015 5.015 0 0 1 1.877 2.111c.221.285.422.585.585.907 1.284 2.527.514 5.405-1.774 7.037zM19.433 76.89c-2.352-2.711-1.627-7.523 2.218-8.425a2.41 2.41 0 0 1 1.453.086 3.713 3.713 0 0 1 3.368-.593c3.365 1.065 4.286 6.681 2.56 9.395-2.134 3.356-7.358 2.118-9.599-.463zm6.915-47.299c-2.672 1.615-6.3 1.46-9.021.032-3.008-1.579-2.637-4.783-1.315-7.452 1.113-2.25 2.955-3.807 5.371-3.788a5.058 5.058 0 0 1 2.618-.647c2.675.055 5.063 2 5.662 4.579.647 2.782-.922 5.83-3.315 7.276zm-31.255 167.55c-3.474-2.174-2.193-7.494.48-9.777 2.805-2.396 7.786-1.657 8.719 2.259a2.413 2.413 0 0 1-.089 1.48c.739.937.998 2.237.614 3.431-1.102 3.427-6.915 4.366-9.724 2.607zM4.817 2.534C3.715 5.961-2.098 6.9-4.907 5.141c-3.474-2.174-2.193-7.494.48-9.777 2.805-2.396 7.786-1.657 8.719 2.259a2.413 2.413 0 0 1-.089 1.48c.739.937.998 2.237.614 3.431zm15.048 122.494c-4.932-2.639-2.901-8.99 1.253-11.12.828-.424 1.611-.242 2.187.204 2.012-.074 3.962 1.358 4.616 3.243 1.539 4.436-3.509 10.105-8.056 7.673zm1.079 37.917c.936-.852 2.298-1.303 3.452-.857 2.729 1.054 4.775 3.458 4.711 6.506-.062 2.913-2.051 5.414-4.871 6.184-2.853.779-5.96-.389-7.444-2.973-1.516-2.642-.957-5.611.854-7.907.791-1.003 2.103-1.224 3.298-.953zm27.598-24.59c.198.197.364.418.51.652 1.142-.131 2.333.279 3.319 1.045 2.29 1.777 2.667 5.194 1.582 7.713-1.221 2.836-4.139 4.247-7.141 3.845-6.517-.873-8.191-9.02-3.727-13.255 1.514-1.437 3.949-1.503 5.457 0zm19.321 24.228c.095-1.71 1.696-3.647 3.556-3.404 3.471.453 6.345 2.625 6.785 6.265.403 3.33-1.635 6.566-4.858 7.578-3.171.995-6.974-.654-7.893-3.957-.68-2.443.351-5.128 2.41-6.482zm31.49-19.723a3.978 3.978 0 0 1-.407 2.777c-.037 3.919-5.044 6.045-8.028 3.585-2.584-2.131-2.543-6.341-.131-8.584 2.774-2.578 7.692-1.773 8.566 2.222zm14.406 21.323c.309-1.352 1.399-2.1 2.626-2.328.8-.32 1.695-.209 2.479.158 2.422.556 4.52 1.754 5.551 4.188 1.304 3.079-.552 6.512-3.778 7.313-3.105.772-6.25-1.004-7.397-3.905-.707-1.79-.414-3.621.484-5.154.012-.09.015-.184.035-.272zm10.823-87.135c-1.288 1.204-2.999 1.702-4.664 1.613-.069.025-.137.062-.206.084-2.326.737-4.962.108-6.394-1.938-1.426-2.038-1.203-4.608.449-6.428.421-.464.984-.733 1.581-.829 1.614-2.331 4.683-3.654 7.451-2.11 2.347 1.309 2.723 3.591 2.039 5.781.853 1.073 1.043 2.613-.256 3.827zm42.809 51.466c-4.08-.108-6.544-3.373-6.774-7.225-.212-3.552 1.209-8.227 5.566-8.115.597.015 1.16.173 1.671.423a4.684 4.684 0 0 1 2.351.438c3.275 1.535 5.211 5.434 4.429 8.953-.722 3.251-3.923 5.614-7.243 5.526zm20.182 58.85c2.805-2.396 7.786-1.657 8.719 2.259a2.413 2.413 0 0 1-.089 1.48c.739.937.998 2.237.614 3.431-1.102 3.427-6.915 4.366-9.724 2.607-3.474-2.174-2.193-7.494.48-9.777zM97.461-5.396a7.129 7.129 0 0 0-2.78.312c-.758-.625-1.831-.839-2.94-.164-3.065 1.865-3.411 6.093-1.06 8.671 2.499 2.741 6.914 2.182 9.454-.187 1.303-1.215 2.186-2.95 2.035-4.731-.213-2.53-2.345-3.697-4.709-3.901zM97.461 186.604a7.129 7.129 0 0 0-2.78.312c-.758-.625-1.831-.839-2.94-.164-3.065 1.865-3.411 6.093-1.06 8.671 2.499 2.741 6.914 2.182 9.454-.187 1.303-1.215 2.186-2.95 2.035-4.731-.213-2.53-2.345-3.697-4.709-3.901zM196.739 97.293a7.124 7.124 0 0 0-.312-2.786c.626-.76.84-1.836.164-2.947-1.866-3.073-6.095-3.419-8.674-1.063-2.742 2.505-2.183 6.93.187 9.477 1.215 1.306 2.951 2.191 4.733 2.04 2.531-.214 3.698-2.35 3.902-4.721zM4.651 97.293a7.143 7.143 0 0 0-.313-2.786c.626-.76.84-1.836.165-2.947-1.867-3.073-6.096-3.419-8.675-1.063-2.742 2.505-2.183 6.93.187 9.477 1.215 1.306 2.951 2.191 4.733 2.04 2.532-.214 3.699-2.35 3.903-4.721z" fill="#E0E2DB"/><path d="M147.746-5.958c-1.364-1.663-4.426-1.509-5.825 0l-.001.002a2.92 2.92 0 0 0-.957.203c-1.456.597-2.628 1.337-3.428 2.721-.679 1.176-.914 2.577-.734 3.907.408 3.005 2.878 5.341 6.006 5.384 2.593.036 5.237-1.385 6.326-3.773 1.364-2.995.644-5.966-1.387-8.444zM147.746 186.042c-1.364-1.663-4.426-1.509-5.825 0l-.001.002a2.92 2.92 0 0 0-.957.203c-1.456.597-2.628 1.337-3.428 2.721-.679 1.176-.914 2.577-.734 3.907.408 3.005 2.878 5.341 6.006 5.384 2.593.036 5.237-1.385 6.326-3.773 1.364-2.995.644-5.966-1.387-8.444zM43.083 196.804c1.354 1.66 4.394 1.506 5.783 0l.001-.001c.317-.019.635-.073.95-.203 1.446-.596 2.61-1.335 3.404-2.716.674-1.174.908-2.572.728-3.899-.404-3-2.857-5.331-5.963-5.374-2.574-.035-5.2 1.383-6.28 3.766-1.355 2.989-.64 5.954 1.377 8.427zM43.083 5.184c1.354 1.66 4.394 1.506 5.783 0l.001-.002c.317-.019.635-.072.95-.202 1.446-.597 2.61-1.335 3.404-2.716.674-1.174.908-2.573.728-3.899-.404-3-2.857-5.331-5.963-5.374-2.574-.035-5.2 1.383-6.28 3.766-1.355 2.989-.64 5.954 1.377 8.427zM.108 42.846c-1.255-.729-2.646-.655-3.851.411-.102.091-.166.198-.256.294a5.755 5.755 0 0 0-1.027.688c-.012.009-.022.021-.034.031a5.458 5.458 0 0 0-.469.429c-.27.271-.522.564-.726.901-1.384 2.284-.645 5.201 1.412 6.76 2.2 1.669 5.22 1.117 6.896-.96 1.813.549 4.166-.424 4.218-2.934.073-3.446-3.033-5.344-6.163-5.62zM192.108 42.846c-1.255-.729-2.646-.655-3.851.411-.102.091-.166.198-.256.294a5.755 5.755 0 0 0-1.027.688c-.012.009-.022.021-.034.031a5.458 5.458 0 0 0-.469.429c-.27.271-.522.564-.726.901-1.384 2.284-.645 5.201 1.412 6.76 2.2 1.669 5.22 1.117 6.896-.96 1.813.549 4.166-.424 4.218-2.934.073-3.446-3.033-5.344-6.163-5.62zM190.962 148.527c1.254.732 2.643.657 3.847-.412.102-.09.166-.198.256-.294.371-.193.71-.427 1.025-.69.013-.009.023-.022.035-.031.162-.138.323-.276.468-.431.27-.272.521-.566.725-.903 1.382-2.291.645-5.216-1.41-6.78-2.198-1.673-5.215-1.119-6.888.963-1.812-.55-4.162.425-4.215 2.943-.072 3.455 3.03 5.359 6.157 5.635zM-.834 148.527c1.254.732 2.643.657 3.848-.412.101-.09.165-.198.256-.294.37-.193.71-.427 1.025-.69.012-.009.022-.022.035-.031.162-.138.323-.276.467-.431.271-.272.522-.566.726-.903 1.382-2.291.644-5.216-1.41-6.78-2.198-1.673-5.215-1.119-6.889.963-1.811-.55-4.161.425-4.214 2.943-.072 3.455 3.03 5.359 6.156 5.635z" fill="#E0E2DB" /></svg>
