<svg xmlns="http://www.w3.org/2000/svg" width="128" height="23" viewBox="0 0 128 23">
  <g fill="none" fill-rule="evenodd">
    <path fill="#F6B733" d="M123.293158,6.94113214 C123.06816,5.80214448 122.651165,4.97565344 122.038171,4.46615896 C121.409178,3.94366462 120.454689,3.68166746 119.176202,3.68166746 C118.416711,3.68166746 117.792217,3.74716675 117.303223,3.87816533 C116.813728,4.00916391 116.419232,4.17966207 116.119235,4.39065978 C115.819739,4.60165749 115.610241,4.84815482 115.490242,5.12965177 C115.370244,5.41164871 115.310244,5.70264556 115.310244,6.00464229 C115.310244,6.80913357 115.535242,7.41212703 115.984737,7.81412268 C116.434732,8.21661832 117.198224,8.52861493 118.277212,8.74961254 L121.21418,9.32260633 C123.531655,9.78510132 125.230137,10.5340932 126.309125,11.569582 C127.387613,12.6055708 127.927108,14.0990546 127.927108,16.0490334 C127.927108,16.9945232 127.752109,17.8645138 127.402613,18.6585052 C127.052617,19.4529965 126.533623,20.146489 125.84463,20.7399826 C125.155138,21.3329762 124.290647,21.7954712 123.252158,22.1269676 C122.213169,22.458964 120.994183,22.6249622 119.595698,22.6249622 C116.678729,22.6249622 114.446254,21.996469 112.89777,20.7399826 C111.349287,19.4829962 110.515296,17.5875168 110.395798,15.0535442 L114.920748,15.0535442 C115.020247,16.3810298 115.445243,17.3465194 116.194735,17.9495128 C116.943727,18.5530063 118.047715,18.854503 119.506199,18.854503 C120.204691,18.854503 120.794685,18.7790038 121.27418,18.6280055 C121.753674,18.4775071 122.14317,18.2765093 122.442667,18.025012 C122.742664,17.7735147 122.957161,17.477518 123.08716,17.1350217 C123.217159,16.7935254 123.282158,16.4215294 123.282158,16.0190338 C123.282158,15.4565399 123.07216,14.9285456 122.652665,14.4355509 C122.233169,13.9430563 121.463678,13.5860601 120.34469,13.3645625 L117.55772,12.8520681 C116.458732,12.6510703 115.490242,12.3890731 114.651251,12.0675766 C113.81226,11.7460801 113.107768,11.3285846 112.538274,10.8155902 C111.96928,10.3025957 111.534285,9.67460252 111.234788,8.93011058 C110.934792,8.18661864 110.785293,7.30162823 110.785293,6.27613935 C110.785293,5.25065046 110.989791,4.34566027 111.399787,3.56116877 C111.808782,2.77717726 112.378276,2.12368435 113.107768,1.60019002 C113.83676,1.07769568 114.710751,0.680699985 115.72974,0.409202927 C116.749229,0.13770587 117.867717,0.00170734346 119.086703,0.00170734346 C120.644686,0.00170734346 121.943172,0.182705382 122.982161,0.544701459 C124.02065,0.906697536 124.860141,1.38469236 125.499634,1.97718593 C126.138627,2.5711795 126.613122,3.25967204 126.923118,4.04366354 C127.232615,4.82815504 127.437613,5.64264621 127.537612,6.48713706 L127.482112,6.08914137 C127.482112,6.08914137 127.612611,6.88563274 127.619111,7.55612547 C127.619111,7.5631254 127.622611,7.56612537 127.623111,7.57312529 L123.373657,7.57312529 C123.357157,7.3511277 123.327657,7.14312995 123.293158,6.94113214 Z M95.491459,0.544701459 L99.9564107,0.544701459 L99.9564107,18.2210099 L109.667805,18.2210099 L109.667805,22.0819681 L95.491459,22.0819681 L95.491459,0.544701459 Z M78.5896422,0.544701459 L93.184484,0.544701459 L93.184484,4.37565994 L83.0550938,4.37565994 L83.0550938,9.08110895 L92.5849905,9.08110895 L92.5849905,12.9420671 L83.0550938,12.9420671 L83.0550938,18.2510096 L93.184984,18.2510096 L93.184984,22.0819681 L78.5896422,22.0819681 L78.5896422,0.544701459 Z M72.9407034,13.8170576 C71.4412197,14.3590517 69.844237,14.3900514 68.2697541,14.3900514 L66.3972743,14.3900514 C66.2532759,14.3900514 65.693782,14.3155522 65.6137828,14.4175511 C65.5217838,14.5350498 65.6137828,15.1125436 65.6137828,15.255542 L65.6137828,16.9065241 L65.6137828,20.706483 C65.6137828,21.0909788 65.6552824,21.5019743 65.6137828,21.8844702 C65.5877831,22.1219676 65.6522824,22.0644682 65.3967852,22.0819681 C64.2727974,22.1584672 63.1178099,22.0819681 61.9913221,22.0819681 C61.8798233,22.0819681 61.2873297,22.1629672 61.2083306,22.0794681 C61.1783309,22.0479684 61.2083306,21.8344707 61.2083306,21.7939712 L61.2083306,19.9939907 L61.2083306,13.2110642 L61.2083306,0.783698869 L61.2083306,0.544701459 L67.1572661,0.544701459 C70.0072352,0.544701459 73.2547,0.440202591 75.4581762,2.58067939 C77.1526578,4.22666156 77.4001551,6.88563274 76.9846596,9.10810865 C76.5556643,11.4045838 75.1161799,13.0305661 72.9407034,13.8170576 Z M72.0452131,5.17015133 C70.7587271,3.88416527 68.2967538,4.25516125 66.6187719,4.25516125 C66.3972743,4.25516125 65.9157796,4.15916229 65.7097818,4.25516125 C65.5647834,4.32266052 65.6662823,4.21416169 65.6137828,4.38065989 C65.5577834,4.55915795 65.6137828,4.85265477 65.6137828,5.03915275 L65.6137828,6.09314133 L65.6137828,8.62661387 C65.6137828,9.21710747 65.5352837,9.8696004 65.6137828,10.456094 C65.6407825,10.6580919 65.5677833,10.5850926 65.7072818,10.6495919 C65.9377793,10.7565908 66.4857734,10.6495919 66.7332707,10.6495919 L68.8202481,10.6495919 C70.0992342,10.6495919 71.7717161,10.4320943 72.4177091,9.1406083 C72.9687031,8.03812025 72.9572033,6.08214145 72.0452131,5.17015133 Z M52.9669199,17.105022 L45.4750011,17.105022 L43.7665196,22.0819681 L39.1515696,22.0819681 L47.1829826,0.544701459 L51.4389365,0.544701459 L59.4698494,22.0819681 L54.6754014,22.0819681 L52.9669199,17.105022 Z M49.1909608,5.67264589 L46.6134888,13.3950622 L51.7979326,13.3950622 L49.1909608,5.67264589 Z M14.9073324,14.6315488 L16.5248148,14.6315488 L18.9712883,14.6315488 C18.7717905,16.9135241 17.8438005,19.2204991 16.0288202,20.6789833 C14.2608394,22.0999679 12.1523622,22.6199622 9.9208864,22.6249622 C7.99290729,22.6294621 6.07742805,22.2329664 4.42844592,21.1939777 C2.78396374,20.1574889 1.5979766,18.5690061 0.906984086,16.7575258 C0.150992279,14.7760472 -0.0725052991,12.5960709 0.0194937039,10.4865937 C0.109492729,8.43361596 0.522488253,6.33713868 1.52797736,4.52915828 C3.54345551,0.906697536 7.57791179,-0.364788685 11.5003693,0.0877064115 C13.3943488,0.306204044 15.2263289,1.07519571 16.5833142,2.4511808 C18.0387984,3.9276648 18.7922903,5.94664292 18.9712883,7.99512072 L16.8688111,7.99512072 L15.3043281,7.99512072 C15.0403309,7.99512072 14.5133366,8.10211956 14.2683393,7.99512072 C14.0273419,7.89062185 13.9483428,6.93913216 13.836344,6.62063561 C13.6063465,5.96464272 13.2723501,5.30914983 12.7768554,4.81465518 C11.8093659,3.84966564 10.1628838,3.7056672 8.8873976,3.96116443 C5.80793097,4.57915774 4.79094199,7.91962153 4.68794311,10.6825916 C4.58544422,13.4335618 5.08393882,17.0385227 7.89140839,18.3410086 C9.11939509,18.9110024 10.788377,18.949502 12.0153637,18.3505085 C13.3028497,17.7215153 13.8778435,16.2105317 14.1368407,14.8760461 C14.0913412,15.1130436 13.9643426,15.8065361 14.1503406,14.8060469 C14.1938401,14.4990502 14.6323353,14.6315488 14.9073324,14.6315488 Z M14.1503406,14.8060469 C14.1463406,14.8290467 14.1413407,14.8525464 14.1368407,14.8760461 C14.1458406,14.8260467 14.1518405,14.796047 14.1503406,14.8060469 Z"/>
    <path fill="#2C2C21" d="M36.6005973,21.996469 L31.8681486,21.996469 L31.8681486,10.4965936 L27.1366998,10.4965936 L27.1366998,5.73314523 L31.8681486,5.73314523 L31.8681486,0.630200532 L36.6005973,0.630200532 L36.6005973,5.73314523 L41.332046,5.73314523 L41.332046,10.4965936 L36.6005973,10.4965936 L36.6005973,21.996469 Z M30.2451661,16.8935243 L25.5137174,16.8935243 L25.5137174,21.996469 L20.7812687,21.996469 L20.7812687,0.630200532 L25.5137174,0.630200532 L25.5137174,12.1305759 L30.2451661,12.1305759 L30.2451661,16.8935243 Z"/>
  </g>
</svg>
